<?xml version="1.0" standalone="no"?>
<!DOCTYPE svg PUBLIC "-//W3C//DTD SVG 20010904//EN"
 "http://www.w3.org/TR/2001/REC-SVG-20010904/DTD/svg10.dtd">
<svg version="1.0" xmlns="http://www.w3.org/2000/svg"
 width="174.000000pt" height="61.000000pt" viewBox="0 0 629.000000 223.000000"
 preserveAspectRatio="xMidYMid meet">

<g transform="translate(0.000000,223.000000) scale(0.100000,-0.100000)"
fill="#000000" stroke="none">
<path d="M2078 2171 c-82 -33 -150 -89 -181 -154 -8 -17 -28 -72 -43 -121 -30
-99 -134 -311 -190 -388 -23 -33 -34 -58 -32 -75 3 -30 28 -49 52 -40 44 17
203 317 261 492 35 105 71 166 82 137 8 -22 41 -34 63 -22 15 8 20 21 20 49 0
35 3 40 31 50 55 19 104 14 138 -15 34 -28 38 -51 17 -92 -20 -39 -45 -57
-103 -76 -62 -20 -145 -91 -174 -147 -10 -22 -69 -180 -130 -351 -112 -319
-170 -480 -176 -487 -1 -2 -12 4 -22 13 -25 23 -62 17 -72 -11 -6 -16 0 -37
21 -77 47 -88 40 -126 -45 -236 -70 -91 -78 -113 -79 -226 l-1 -100 53 -62
c37 -43 52 -68 50 -84 -3 -22 -8 -23 -77 -23 l-74 0 -33 160 c-49 236 -46 282
22 382 23 33 25 45 21 92 -8 71 -34 100 -73 82 -25 -11 -26 -14 -20 -62 6 -46
4 -54 -30 -105 -27 -41 -38 -70 -43 -112 -6 -54 -8 -58 -41 -69 -19 -7 -50
-12 -69 -12 -28 -1 -32 2 -26 17 44 99 58 195 33 220 -18 18 -56 14 -68 -7 -5
-11 -10 -37 -10 -58 -1 -85 -58 -158 -151 -192 -83 -32 -104 -58 -104 -136 0
-64 0 -64 54 -119 71 -72 66 -86 -28 -86 -58 0 -71 3 -75 18 -54 183 -64 341
-27 425 26 61 27 93 1 107 -22 12 -54 0 -63 -23 -4 -10 -34 -16 -105 -20 -133
-8 -251 -46 -303 -98 -80 -80 -51 -155 96 -244 l60 -36 -40 6 c-45 8 -177 51
-215 70 -52 27 -80 65 -80 109 1 105 81 193 250 273 218 103 261 127 328 187
73 65 149 104 257 130 39 9 87 21 107 27 20 5 68 13 106 18 125 16 391 167
400 228 2 13 -5 27 -19 37 -26 18 -42 11 -102 -40 -42 -36 -160 -100 -210
-115 -18 -6 -66 -16 -107 -24 -286 -55 -381 -93 -503 -202 -32 -29 -82 -63
-110 -77 -289 -137 -306 -146 -364 -200 -74 -68 -113 -139 -120 -215 -10 -106
26 -160 145 -220 72 -36 133 -55 252 -80 77 -17 240 -41 271 -41 4 0 10 -14
14 -30 12 -54 26 -60 136 -60 143 0 189 29 189 119 0 40 -5 49 -55 98 -30 30
-55 63 -55 73 0 29 11 50 26 50 8 0 33 9 54 20 35 18 45 19 85 9 42 -11 98 -8
166 7 25 5 26 3 44 -78 10 -46 26 -125 35 -177 13 -66 24 -99 36 -109 14 -10
47 -13 126 -10 105 3 108 4 138 33 32 33 47 85 36 130 -4 14 -29 51 -58 82
l-51 56 6 73 c6 81 12 95 74 176 52 68 83 132 83 173 0 25 72 240 180 540 10
28 44 124 76 215 31 91 68 186 81 213 28 56 84 100 150 116 85 22 164 135 149
214 -9 49 -45 99 -86 119 -48 24 -169 23 -232 -1z m-1386 -1735 c-2 -58 1
-121 7 -141 10 -37 10 -37 -17 -30 -50 12 -247 115 -280 146 -27 25 -31 33
-21 46 34 40 164 81 264 82 l50 1 -3 -104z"/>
<path d="M2740 1505 l0 -295 50 0 50 0 0 120 0 119 118 3 117 3 3 39 c2 24 -2
42 -10 47 -7 5 -61 9 -120 9 l-108 0 0 80 0 80 140 0 140 0 0 45 0 45 -190 0
-190 0 0 -295z"/>
<path d="M3207 1794 c-4 -4 -7 -137 -7 -296 l0 -288 50 0 50 0 0 120 0 120 50
0 49 0 63 -120 63 -120 58 0 58 0 -17 33 c-9 17 -39 71 -65 118 -27 48 -49 91
-49 95 0 5 15 16 33 24 50 23 80 90 74 164 -6 62 -23 95 -71 130 -24 19 -44
21 -179 24 -84 2 -156 0 -160 -4z m293 -111 c17 -22 21 -37 17 -68 -8 -56 -26
-65 -129 -65 l-88 0 0 80 0 80 89 0 c86 0 90 -1 111 -27z"/>
<path d="M3757 1793 c-4 -3 -7 -136 -7 -295 l0 -288 195 0 195 0 0 45 0 45
-145 0 -146 0 3 78 3 77 123 3 123 3 -3 42 -3 42 -122 3 -123 3 0 79 0 80 145
0 145 0 0 45 0 45 -188 0 c-104 0 -192 -3 -195 -7z"/>
<path d="M4257 1793 c-4 -3 -7 -136 -7 -295 l0 -288 195 0 195 0 0 45 0 45
-145 0 -146 0 3 78 3 77 123 3 123 3 -3 42 -3 42 -122 3 -123 3 0 79 0 80 145
0 145 0 0 45 0 45 -188 0 c-104 0 -192 -3 -195 -7z"/>
<path d="M4740 1755 l0 -45 115 0 c76 0 115 -4 115 -11 0 -6 -39 -74 -87 -152
-150 -247 -153 -252 -153 -296 l0 -41 191 0 190 0 -3 43 -3 42 -128 5 -127 5
96 160 c53 88 109 182 125 208 19 31 29 62 29 87 l0 40 -180 0 -180 0 0 -45z"/>
<path d="M5207 1793 c-4 -3 -7 -136 -7 -295 l0 -288 195 0 195 0 0 45 0 45
-145 0 -146 0 3 78 3 77 123 3 123 3 -3 42 -3 42 -122 3 -123 3 0 79 0 80 145
0 145 0 0 45 0 45 -188 0 c-104 0 -192 -3 -195 -7z"/>
<path d="M5707 1794 c-4 -4 -7 -137 -7 -296 l0 -288 50 0 50 0 0 120 0 120 50
0 49 0 63 -120 63 -120 58 0 58 0 -17 33 c-9 17 -39 71 -65 118 -27 48 -49 91
-49 95 0 5 15 16 33 24 50 23 80 90 74 164 -6 62 -23 95 -71 130 -24 19 -44
21 -179 24 -84 2 -156 0 -160 -4z m293 -111 c17 -22 21 -37 17 -68 -8 -56 -26
-65 -129 -65 l-88 0 0 80 0 80 89 0 c86 0 90 -1 111 -27z"/>
<path d="M3945 798 c-48 -17 -94 -56 -117 -101 -20 -38 -22 -57 -22 -192 0
-125 3 -156 18 -187 73 -150 305 -152 383 -4 13 23 18 66 21 162 6 199 -22
271 -125 315 -49 21 -111 23 -158 7z m147 -117 l33 -29 0 -146 c0 -144 0 -146
-26 -172 -59 -59 -167 -34 -188 43 -13 47 -14 194 -1 248 19 84 117 114 182
56z"/>
<path d="M5383 786 c-36 -17 -60 -38 -80 -67 -27 -41 -28 -47 -31 -197 -3
-126 0 -164 13 -198 42 -109 184 -154 295 -92 41 23 88 84 96 127 l7 31 -52 0
c-38 0 -51 -4 -51 -14 0 -8 -10 -27 -22 -41 -45 -51 -144 -42 -173 16 -18 35
-21 269 -4 302 33 64 115 77 168 28 17 -16 31 -36 31 -45 0 -13 11 -16 50 -16
53 0 56 3 39 47 -21 58 -60 101 -109 122 -63 27 -113 26 -177 -3z"/>
<path d="M2740 505 l0 -295 50 0 49 0 3 113 3 112 95 5 c123 6 160 24 195 93
29 58 32 102 10 154 -39 94 -84 113 -265 113 l-140 0 0 -295z m294 174 c15
-17 26 -43 26 -59 0 -16 -11 -42 -26 -59 -25 -30 -28 -31 -110 -31 l-84 0 0
90 0 90 84 0 c82 0 85 -1 110 -31z"/>
<path d="M3270 505 l0 -295 45 0 45 0 0 121 0 120 52 -3 52 -3 61 -115 62
-115 57 -3 c59 -3 64 1 43 33 -8 11 -37 63 -65 116 l-51 96 37 24 c71 46 93
149 51 236 -34 71 -69 83 -244 83 l-145 0 0 -295z m289 179 c27 -34 27 -88 1
-114 -17 -17 -33 -20 -110 -20 l-90 0 0 73 c0 41 3 77 7 80 3 4 44 7 89 7 77
0 84 -2 103 -26z"/>
<path d="M4540 592 c0 -216 -7 -264 -40 -282 -28 -15 -83 -12 -108 6 -22 15
-25 14 -57 -8 -19 -12 -35 -28 -35 -35 0 -21 49 -51 101 -62 97 -21 177 11
214 84 18 37 20 60 20 270 l0 230 -47 3 -48 3 0 -209z"/>
<path d="M4780 505 l0 -295 195 0 195 0 0 45 0 44 -147 3 -148 3 0 75 0 75
123 3 122 3 0 44 0 44 -122 3 -123 3 0 75 0 75 148 3 147 3 0 44 0 45 -195 0
-195 0 0 -295z"/>
<path d="M5710 755 l0 -45 80 0 80 0 0 -250 0 -250 50 0 50 0 0 250 0 250 80
0 80 0 0 45 0 45 -210 0 -210 0 0 -45z"/>
</g>
</svg>
